<svg width="24.000000000000004" height="24.000000000000004" xmlns="http://www.w3.org/2000/svg" fill="none">
 <g>
  <title>Layer 1</title>
  <path id="svg_1" stroke-linejoin="round" stroke-width="4" stroke="#323232" d="m19,9.77083l0,8c0,1.8856 0,2.8284 -0.5858,3.4142c-0.5858,0.5858 -1.5286,0.5858 -3.4142,0.5858l-1,0l-4,0l-1,0c-1.88562,0 -2.82843,0 -3.41421,-0.5858c-0.58579,-0.5858 -0.58579,-1.5286 -0.58579,-3.4142l0,-8"/>
  <path id="svg_2" stroke-linejoin="round" stroke-linecap="round" stroke-width="5" stroke="#323232" d="m3.0625,10.06251l4.5,-4l3.1713,-2.81891c0.7577,-0.67357 1.8997,-0.67357 2.6574,0l3.1713,2.81891l4.5,4"/>
  <path id="svg_3" stroke-linejoin="round" stroke-linecap="round" stroke-width="2.5" stroke="#323232" d="m10,19.43751l0,-4c0,-1.1046 0.8954,-2 2,-2l0,0c1.1046,0 2,0.8954 2,2l0,4"/>
 </g>

</svg>